<svg xmlns="http://www.w3.org/2000/svg" xmlns:xlink="http://www.w3.org/1999/xlink" viewBox="0 0 1920 1080"><defs><style>.cls-1{fill:none;}.cls-2{fill:#fff4e8;}.cls-3{clip-path:url(#clip-path);}.cls-4{fill:#4d9688;}.cls-5{fill:#72aa9f;}.cls-6{fill:#d3bbb2;}.cls-7{clip-path:url(#clip-path-2);}.cls-8{fill:#352824;}.cls-9{fill:#382d2a;}.cls-10{fill:#dba99e;}.cls-11{fill:#963b44;}.cls-12{fill:#b25b68;}.cls-13{clip-path:url(#clip-path-3);}.cls-14{fill:#6b4536;}.cls-15{fill:#3d7066;}.cls-16{fill:#296d5d;}.cls-17{fill:#a8ddd3;}.cls-18{fill:#8ac1b6;}.cls-19{fill:#f7e7bf;}.cls-20{fill:#f2bb4e;}.cls-21{fill:#d19833;}.cls-22{clip-path:url(#clip-path-4);}.cls-23{fill:#c46443;}.cls-24{fill:#7dd37f;}.cls-25{fill:#329637;}.cls-26{fill:#589358;}.cls-27{fill:#329e37;}</style><clipPath id="clip-path"><rect class="cls-1" width="1920" height="1080"/></clipPath><clipPath id="clip-path-2"><circle class="cls-1" cx="1066.22" cy="582.93" r="113"/></clipPath><clipPath id="clip-path-3"><circle class="cls-1" cx="350.37" cy="378.88" r="159.09"/></clipPath><clipPath id="clip-path-4"><circle class="cls-1" cx="713.5" cy="624.5" r="113"/></clipPath></defs><title>splash</title><g id="Layer_3" data-name="Layer 3"><rect class="cls-2" width="1920" height="1080"/><g class="cls-3"><circle class="cls-4" cx="1065.74" cy="582.86" r="135.74"/><circle class="cls-4" cx="1065.74" cy="920.43" r="225.94"/><path class="cls-4" d="M931.79,603.4a242.24,242.24,0,0,1-.89,77.7c-10.3,58.66-40,98.85-56.26,117.88l381.32-.9c-16.12-19.12-45.67-59.73-55.37-118.77a241.45,241.45,0,0,1,0-77.69Z"/><circle class="cls-5" cx="1065.29" cy="582.72" r="136.35"/><ellipse class="cls-4" cx="1065.5" cy="694.5" rx="19.5" ry="13.5"/><circle class="cls-6" cx="1065.28" cy="582.86" r="112.54"/><g class="cls-7"><circle class="cls-8" cx="1016.69" cy="469.93" r="89.01"/><circle class="cls-8" cx="1146.72" cy="459.1" r="89.01"/></g><circle class="cls-9" cx="1021.46" cy="588.07" r="15.52"/><circle class="cls-9" cx="1113.71" cy="588.07" r="15.52"/><path class="cls-9" d="M1045,579.64c.26-1.18-10.36-5.83-21.28-7.1-21.22-2.45-39.2,8.37-39,8.87.09.28,5.85-2.13,16.85-3.55a73.84,73.84,0,0,1,14.19-.88c7.43.35,10,1.83,20.4,2.66C1040.9,580,1044.81,580.33,1045,579.64Z"/><path class="cls-9" d="M1088.46,579.64c-.26-1.19,10.37-5.84,21.29-7.1,21.21-2.45,39.19,8.37,39,8.87-.09.28-5.86-2.13-16.86-3.55a73.79,73.79,0,0,0-14.19-.88c-7.43.35-10,1.83-20.4,2.66C1092.52,580,1088.61,580.33,1088.46,579.64Z"/><ellipse class="cls-10" cx="990.89" cy="621.99" rx="22.1" ry="14.19"/><ellipse class="cls-10" cx="1140.17" cy="621.99" rx="22.1" ry="14.19"/><path class="cls-11" d="M1079.75,650.31c-.78,5.18-8.27,7.55-13.23,7.56-5.17,0-12.57-2.58-13.23-7.56-.5-3.78,3-8.23,6.26-8.46,2.45-.18,3.13,2.15,6.25,2.28,3.67.16,4.8-3,7.69-2.74C1076.84,641.69,1080.34,646.35,1079.75,650.31Z"/><path class="cls-5" d="M1065,719c-18.33,33.74-48.47,75.89-98,103-58,31.76-92.44,15.49-116,44-40,48.37-4.66,174.2,79,237,81.91,61.49,179.25,39.36,193,36,27.41-6.7,100.15-29.77,141-100,24.84-42.7,27.07-84.23,28-106,1.6-37.54,2.78-65.49-15-85-27.62-30.3-70.11-6.63-122-28C1129.28,809.41,1094.08,784.79,1065,719Z"/><circle class="cls-11" cx="351.83" cy="379.36" r="193.35"/><circle class="cls-11" cx="351.83" cy="860.18" r="321.82"/><path class="cls-11" d="M161,408.61a345,345,0,0,1-1.27,110.67c-14.67,83.55-56.94,140.8-80.14,167.91l543.15-1.28c-23-27.24-65-85.08-78.87-169.17a343.79,343.79,0,0,1,0-110.67Z"/><circle class="cls-12" cx="351.86" cy="379.21" r="193.35"/><path class="cls-12" d="M673.53,859.52c0,177.73-144.09,321.82-321.82,321.82S29.89,1037.25,29.89,859.52a320.44,320.44,0,0,1,66.53-196A879.6,879.6,0,0,0,247,732c61.4,21.13,90.76,23.39,102,24,51.06,2.77,89.85-8.88,116-17,61.58-19.11,108.52-50,141-76.74A320.39,320.39,0,0,1,673.53,859.52Z"/><ellipse class="cls-11" cx="352" cy="537.43" rx="21.25" ry="14.71"/><circle class="cls-6" cx="351.46" cy="378.88" r="159.09"/><g class="cls-13"><circle class="cls-14" cx="280.63" cy="219.79" r="125.31"/><circle class="cls-14" cx="463.69" cy="204.54" r="125.31"/></g><circle class="cls-9" cx="295.34" cy="387.05" r="19.07"/><circle class="cls-9" cx="408.67" cy="387.05" r="19.07"/><path class="cls-9" d="M324.22,376.7c.32-1.45-12.74-7.16-26.15-8.71-26.06-3-48.15,10.28-47.95,10.89.11.34,7.2-2.62,20.7-4.36a91.89,91.89,0,0,1,17.44-1.09c9.12.44,12.24,2.26,25.06,3.27C319.23,377.17,324,377.55,324.22,376.7Z"/><path class="cls-9" d="M377.65,376.7c-.32-1.45,12.73-7.16,26.15-8.72,26.06-3,48.15,10.28,47.95,10.9-.11.34-7.2-2.62-20.71-4.36a90.92,90.92,0,0,0-17.43-1.09c-9.13.44-12.25,2.26-25.06,3.27C382.64,377.17,377.83,377.55,377.65,376.7Z"/><ellipse class="cls-10" cx="249.58" cy="435" rx="29.97" ry="17.98"/><ellipse class="cls-10" cx="453.34" cy="435" rx="29.97" ry="17.98"/><path class="cls-11" d="M366.92,477.52c-1,6.66-10.64,9.72-17,9.72-6.64,0-16.17-3.31-17-9.72-.65-4.87,3.85-10.59,8-10.89,3.16-.23,4,2.78,8.05,2.94,4.72.2,6.17-3.86,9.9-3.53C363.17,466.42,367.68,472.42,366.92,477.52Z"/><path class="cls-15" d="M1069.46,763.38c8.29,17.47,26.14,33.85,33.5,30.15s4.88-27.8-4.19-44.88c-9.65-18.17-25.92-26.77-33.5-30.15C1063.46,726.6,1060.64,744.78,1069.46,763.38Z"/><path class="cls-15" d="M1029.47,745.47c-10.65,16.15-15.39,39.91-8.41,44.29s26.3-10.25,36.2-26.86c10.53-17.69,9.44-36,8.4-44.29C1057.8,721.26,1040.79,728.29,1029.47,745.47Z"/><path class="cls-12" d="M359.15,631.37c10.92,23,34.46,44.62,44.16,39.75s6.43-36.65-5.52-59.16c-12.73-24-34.17-35.3-44.17-39.75C351.23,582.88,347.52,606.85,359.15,631.37Z"/><path class="cls-12" d="M306.42,607.76c-14,21.29-20.27,52.61-11.08,58.38s34.67-13.51,47.72-35.41c13.88-23.31,12.45-47.52,11.08-58.37C343.77,575.85,321.36,585.11,306.42,607.76Z"/><circle class="cls-4" cx="948.5" cy="871.5" r="11.5"/><circle class="cls-16" cx="1148" cy="993" r="14"/><circle class="cls-16" cx="1112.5" cy="844.5" r="15.5"/><circle class="cls-4" cx="1128.5" cy="907.5" r="11.5"/><circle class="cls-4" cx="1220.5" cy="1017.5" r="21.5"/><circle class="cls-17" cx="1185.5" cy="948.5" r="15.5"/><circle class="cls-4" cx="1063.5" cy="959.5" r="15.5"/><circle class="cls-17" cx="984.5" cy="1004.5" r="22.5"/><circle class="cls-17" cx="1012" cy="835" r="21"/><circle class="cls-16" cx="999.5" cy="934.5" r="20.5"/><circle class="cls-17" cx="1251.5" cy="915.5" r="19.5"/><circle class="cls-16" cx="1195.5" cy="881.5" r="25.5"/><ellipse class="cls-18" cx="1101" cy="1017" rx="27" ry="24"/><circle class="cls-18" cx="1070.5" cy="880.5" r="15.5"/><circle class="cls-18" cx="1021.5" cy="1048.5" r="15.5"/><rect class="cls-11" x="297" y="725" width="124" height="216"/><line class="cls-11" x1="330" y1="855" x2="386" y2="911"/><path class="cls-19" d="M326.46,858.54l56,56c4.56,4.55,11.63-2.52,7.08-7.08l-56-56c-4.56-4.55-11.63,2.52-7.08,7.08Z"/><line class="cls-11" x1="386.16" y1="854.66" x2="330.16" y2="910.66"/><path class="cls-19" d="M382.63,851.13l-56,56c-4.56,4.55,2.51,11.63,7.07,7.07l56-56c4.56-4.56-2.51-11.63-7.07-7.07Z"/><line class="cls-11" x1="330" y1="763.75" x2="386" y2="819.75"/><path class="cls-19" d="M326.47,767.29l56,56c4.55,4.56,11.63-2.51,7.07-7.07l-56-56c-4.56-4.56-11.63,2.51-7.07,7.07Z"/><line class="cls-11" x1="386.17" y1="763.42" x2="330.17" y2="819.42"/><path class="cls-19" d="M382.63,759.88l-56,56c-4.55,4.56,2.51,11.63,7.07,7.07l56-56c4.56-4.56-2.51-11.63-7.07-7.07Z"/><rect class="cls-11" x="184" y="682" width="16" height="342"/><rect class="cls-11" x="503" y="665" width="16" height="305"/><path class="cls-11" d="M660.21,940.91c-36.09,138.27-161.83,240.31-311.4,240.31-152.92,0-280.91-106.64-313.69-249.61C107.78,984.05,223.79,1018,354.5,1018,477.29,1018,587.11,988,660.21,940.91Z"/><circle class="cls-20" cx="714.17" cy="623.66" r="135.74"/><circle class="cls-20" cx="714.17" cy="961.23" r="225.94"/><path class="cls-20" d="M580.22,644.2a242.18,242.18,0,0,1-.89,77.69c-10.3,58.66-40,98.85-56.26,117.88l381.32-.89c-16.12-19.13-45.67-59.73-55.37-118.77a241.51,241.51,0,0,1,0-77.7Z"/><circle class="cls-21" cx="714.19" cy="624.15" r="136.35"/><path class="cls-21" d="M940.75,959.83c0,124.78-101.16,225.94-225.94,225.94S488.88,1084.61,488.88,959.83A225.08,225.08,0,0,1,544,811.94a225.92,225.92,0,0,0,333.73-8.64A225.15,225.15,0,0,1,940.75,959.83Z"/><ellipse class="cls-20" cx="714" cy="735" rx="19.5" ry="13.5"/><circle class="cls-6" cx="714.19" cy="624.29" r="112.54"/><g class="cls-22"><circle class="cls-23" cx="663.97" cy="511.5" r="89.01"/><circle class="cls-23" cx="793.99" cy="500.66" r="89.01"/></g><circle class="cls-9" cx="669.31" cy="629.98" r="15.52"/><circle class="cls-9" cx="761.56" cy="629.98" r="15.52"/><path class="cls-9" d="M692.82,621.55c.26-1.18-10.37-5.83-21.29-7.1-21.21-2.45-39.19,8.37-39,8.87.09.28,5.86-2.13,16.85-3.54a73.08,73.08,0,0,1,14.2-.89c7.42.35,10,1.83,20.4,2.66C688.76,621.93,692.67,622.24,692.82,621.55Z"/><path class="cls-9" d="M736.31,621.55c-.26-1.18,10.37-5.83,21.29-7.1,21.21-2.45,39.19,8.37,39,8.87-.09.28-5.86-2.13-16.85-3.55a73.84,73.84,0,0,0-14.19-.88c-7.43.35-10,1.83-20.41,2.66C740.37,621.93,736.47,622.24,736.31,621.55Z"/><ellipse class="cls-10" cx="640.12" cy="664.31" rx="22.1" ry="14.19"/><ellipse class="cls-10" cx="789.4" cy="664.31" rx="22.1" ry="14.19"/><path class="cls-11" d="M728.36,691c-.77,5.17-8.26,7.55-13.22,7.55-5.17,0-12.57-2.57-13.23-7.55-.5-3.79,3-8.23,6.25-8.47,2.46-.18,3.14,2.16,6.26,2.29,3.67.15,4.8-3,7.69-2.75C725.45,682.32,729,687,728.36,691Z"/><path class="cls-24" d="M745.87,929.18c-.87,5.06-5.7,36.27,15.9,64.43s53,31.59,58.11,32.06c.88-5.07,5.71-36.27-15.89-64.44C800.86,957.16,781.22,932.43,745.87,929.18Z"/><path class="cls-25" d="M753,1017.61c-.8,4.64-5.23,33.27,14.58,59.1s48.62,29,53.31,29.4c.8-4.64,5.23-33.27-14.59-59.1C803.47,1043.27,785.45,1020.59,753,1017.61Z"/><path class="cls-26" d="M921.72,981.25c-5.44-.79-39-5.12-68.49,18.74s-32.35,57.54-32.72,63c5.44.8,39,5.13,68.49-18.74C893.28,1040.82,919.2,1019.15,921.72,981.25Z"/><path class="cls-27" d="M877.32,897.93c-4.5,1.37-32,10.25-46.12,39.49s-4,56.29-2.3,60.66c4.5-1.37,32-10.25,46.12-39.48C877.06,954.37,889.19,928.15,877.32,897.93Z"/><path class="cls-26" d="M503.65,971.34c.8,4,6.15,28.31,30.22,42.89s48.32,8.18,52.24,7.07c-.8-4-6.15-28.3-30.22-42.89C552.4,976.3,530.77,963.69,503.65,971.34Z"/><path class="cls-24" d="M534.26,1034.37c.74,3.64,5.65,26,27.73,39.34s44.31,7.5,47.91,6.49c-.73-3.65-5.64-26-27.72-39.34C579,1038.92,559.14,1027.35,534.26,1034.37Z"/><path class="cls-27" d="M648.88,959.69c-4.26,1-30.34,7.29-45.4,33.25s-7.51,51.52-6.21,55.66c4.26-1,30.33-7.29,45.4-33.25C644.85,1011.6,657.85,988.28,648.88,959.69Z"/><path class="cls-24" d="M592.12,911c-2.94,2.28-20.77,16.63-22.88,42.15s13.14,42.57,15.66,45.29c2.94-2.28,20.77-16.63,22.88-42.15C608.08,952.6,609.57,929.86,592.12,911Z"/><path class="cls-26" d="M822.59,880.69c-2.62,1.15-18.6,8.54-24.92,27.19s1.88,34.2,3.25,36.71c2.62-1.16,18.59-8.54,24.92-27.2C826.75,914.69,832.1,898,822.59,880.69Z"/><path class="cls-21" d="M720.7,806.08c8.28,17.48,26.14,33.86,33.5,30.16s4.88-27.8-4.19-44.88c-9.66-18.18-25.92-26.77-33.5-30.15C714.69,769.31,711.88,787.49,720.7,806.08Z"/><path class="cls-21" d="M680.7,788.18c-10.64,16.15-15.38,39.91-8.4,44.28s26.3-10.24,36.19-26.86c10.54-17.68,9.45-36.05,8.41-44.28C709,764,692,771,680.7,788.18Z"/></g></g></svg>
